<svg width="20" height="17" viewBox="0 0 20 17" fill="none" xmlns="http://www.w3.org/2000/svg">
<path d="M19.3478 1.43609V15.7839C19.3478 16.2622 18.9565 16.6535 18.4783 16.6535H7.15218C6.67392 16.6535 6.30435 16.2622 6.30435 15.7839V11.8057C6.30435 11.3274 6.69565 10.9361 7.17391 10.9361C7.65218 10.9361 8.04348 11.3274 8.04348 11.8057V14.9144H17.6087V2.30566H8.04348V5.41435C8.04348 5.89261 7.65218 6.28392 7.17391 6.28392C6.69565 6.28392 6.30435 5.89261 6.30435 5.41435V1.43609C6.30435 0.957833 6.67392 0.566528 7.15218 0.566528H18.4783C18.9565 0.566528 19.3478 0.957833 19.3478 1.43609ZM10.1087 11.4144C9.76087 11.7622 9.78261 12.3057 10.1087 12.6535C10.2826 12.8274 10.5 12.9144 10.7174 12.9144C10.9348 12.9144 11.1739 12.8274 11.3261 12.6535L14.7391 9.2187C15.0652 8.87088 15.0652 8.3274 14.7391 8.00131L11.3478 4.52305C11 4.17522 10.4565 4.17522 10.1087 4.52305C9.76087 4.87088 9.76087 5.41435 10.1087 5.76218L12.0435 7.7187L1.52174 7.74044C1.04348 7.74044 0.652176 8.13175 0.652176 8.61001C0.652176 9.08827 1.04348 9.47957 1.52174 9.47957L12.0435 9.45783L10.1087 11.4144Z" fill="#00FFC4"/>
</svg>
