<svg width="20" height="21" viewBox="0 0 20 21" fill="none" xmlns="http://www.w3.org/2000/svg">
<g clip-path="url(#clip0_1_55)">
<path d="M10 6.5475C10.6799 6.5475 11.3445 6.74911 11.9098 7.12683C12.4751 7.50454 12.9157 8.04141 13.1758 8.66953C13.436 9.29765 13.5041 9.98882 13.3715 10.6556C13.2388 11.3224 12.9114 11.9349 12.4307 12.4157C11.9499 12.8964 11.3374 13.2238 10.6706 13.3565C10.0038 13.4891 9.31265 13.421 8.68453 13.1608C8.05641 12.9007 7.51954 12.4601 7.14182 11.8948C6.76411 11.3295 6.5625 10.6649 6.5625 9.985C6.5625 9.53358 6.65141 9.08658 6.82416 8.66953C6.99691 8.25247 7.25012 7.87352 7.56932 7.55432C7.88852 7.23512 8.26747 6.98191 8.68452 6.80916C9.10158 6.63641 9.54858 6.5475 10 6.5475ZM13.75 5.61H15V6.86C15 7.02576 15.0658 7.18473 15.1831 7.30195C15.3003 7.41916 15.4592 7.485 15.625 7.485C15.7908 7.485 15.9497 7.41916 16.0669 7.30195C16.1842 7.18473 16.25 7.02576 16.25 6.86V5.61H17.5C17.6658 5.61 17.8247 5.54416 17.9419 5.42695C18.0592 5.30974 18.125 5.15076 18.125 4.985C18.125 4.81924 18.0592 4.66027 17.9419 4.54306C17.8247 4.42585 17.6658 4.36 17.5 4.36H16.25V3.11C16.25 2.94424 16.1842 2.78527 16.0669 2.66806C15.9497 2.55085 15.7908 2.485 15.625 2.485C15.4592 2.485 15.3003 2.55085 15.1831 2.66806C15.0658 2.78527 15 2.94424 15 3.11V4.36H13.75C13.5842 4.36 13.4253 4.42585 13.3081 4.54306C13.1908 4.66027 13.125 4.81924 13.125 4.985C13.125 5.15076 13.1908 5.30974 13.3081 5.42695C13.4253 5.54416 13.5842 5.61 13.75 5.61ZM17.3094 8.80969C17.1457 8.83565 16.999 8.92558 16.9016 9.05969C16.8041 9.1938 16.764 9.36112 16.7899 9.52484C16.8466 9.88378 16.875 10.2466 16.875 10.61C16.8763 12.293 16.2577 13.9175 15.1374 15.1733C14.6356 14.4464 13.985 13.8346 13.2287 13.3784C12.359 14.209 11.2026 14.6725 10 14.6725C8.79738 14.6725 7.64102 14.209 6.77132 13.3784C6.01499 13.8346 5.36436 14.4464 4.86263 15.1733C3.98177 14.1832 3.406 12.9595 3.20472 11.6497C3.00344 10.3399 3.18522 8.9998 3.72817 7.79093C4.27112 6.58206 5.15207 5.55599 6.26486 4.83636C7.37765 4.11673 8.6748 3.73425 10 3.735C10.3634 3.73497 10.7262 3.76341 11.0852 3.82007C11.1663 3.83293 11.2491 3.82969 11.3289 3.81054C11.4087 3.79139 11.484 3.7567 11.5504 3.70846C11.6168 3.66022 11.6731 3.59938 11.716 3.52939C11.7588 3.45941 11.7875 3.38167 11.8004 3.3006C11.8132 3.21953 11.81 3.13672 11.7908 3.05691C11.7717 2.97709 11.737 2.90183 11.6887 2.83543C11.6405 2.76902 11.5796 2.71277 11.5096 2.66988C11.4396 2.627 11.3619 2.59832 11.2808 2.58548C10.1203 2.40132 8.93359 2.47088 7.8025 2.78938C6.67141 3.10787 5.62279 3.66772 4.72885 4.43039C3.8349 5.19305 3.11687 6.14041 2.6242 7.20721C2.13153 8.27402 1.87593 9.43493 1.875 10.61C1.87455 11.7374 2.1093 12.8525 2.56424 13.884C3.01919 14.9155 3.68432 15.8408 4.51714 16.6007C4.54808 16.6354 4.58284 16.6666 4.62075 16.6936C6.10405 18.0088 8.01778 18.735 10.0002 18.735C11.9826 18.735 13.8963 18.0087 15.3795 16.6934C15.4172 16.6665 15.4517 16.6356 15.4824 16.6011C16.3154 15.8412 16.9806 14.9159 17.4356 13.8843C17.8907 12.8527 18.1255 11.7375 18.125 10.61C18.125 10.1811 18.0914 9.75284 18.0245 9.32918C18.0117 9.2481 17.983 9.17034 17.9401 9.10035C17.8973 9.03036 17.841 8.9695 17.7746 8.92126C17.7082 8.87301 17.6329 8.83833 17.5531 8.81919C17.4733 8.80005 17.3905 8.79682 17.3094 8.80969Z" fill="#1A1B23"/>
</g>
<defs>
<clipPath id="clip0_1_55">
<rect width="20" height="20" fill="white" transform="translate(0 0.610001)"/>
</clipPath>
</defs>
</svg>
